<?xml version="1.0" standalone="no"?>
<!DOCTYPE svg PUBLIC "-//W3C//DTD SVG 20010904//EN"
 "http://www.w3.org/TR/2001/REC-SVG-20010904/DTD/svg10.dtd">
<svg version="1.0" xmlns="http://www.w3.org/2000/svg"
 width="512.000000pt" height="512.000000pt" viewBox="0 0 512.000000 512.000000"
 preserveAspectRatio="xMidYMid meet">
<metadata>
Created by potrace 1.11, written by Peter Selinger 2001-2013
</metadata>
<g transform="translate(0.000000,512.000000) scale(0.100000,-0.100000)"
fill="#000000" stroke="none">
<path d="M0 2560 l0 -2560 2560 0 2560 0 0 2560 0 2560 -2560 0 -2560 0 0
-2560z m2470 1327 c19 -12 43 -37 53 -55 22 -38 26 -116 7 -153 -7 -13 -157
-169 -333 -346 l-322 -323 685 0 685 0 -322 323 c-176 177 -326 333 -333 346
-19 37 -15 115 7 153 40 69 129 98 210 67 15 -5 226 -208 468 -450 l440 -439
142 0 c193 0 188 4 188 -165 0 -144 -6 -155 -77 -155 -21 0 -38 -3 -38 -7 0
-5 -41 -294 -90 -643 -78 -544 -94 -642 -116 -687 -28 -59 -68 -96 -134 -127
-45 -21 -52 -21 -1030 -21 -978 0 -985 0 -1030 21 -66 31 -106 68 -134 127
-22 45 -38 143 -116 687 -49 349 -90 638 -90 643 0 4 -17 7 -38 7 -71 0 -77
11 -77 155 0 169 -5 165 189 165 l141 0 435 435 c239 239 449 441 465 449 46
24 125 21 165 -7z"/>
<path d="M1955 3410 l-400 -400 85 0 85 0 358 358 c376 376 383 385 339 425
-44 40 -49 35 -467 -383z"/>
<path d="M2697 3792 c-39 -43 -33 -51 341 -425 l357 -357 85 0 85 0 -400 400
c-422 422 -428 427 -468 382z"/>
<path d="M1180 2848 l0 -53 1380 0 1380 0 0 53 0 52 -1380 0 -1380 0 0 -52z"/>
<path d="M1294 2673 c2 -10 44 -297 92 -637 95 -672 91 -655 163 -703 l34 -23
977 0 977 0 34 23 c72 48 68 31 163 703 48 340 90 627 92 637 5 16 -60 17
-1266 17 -1206 0 -1271 -1 -1266 -17z m560 -325 c20 -28 20 -43 0 -62 -12 -13
-40 -16 -144 -16 -127 0 -130 0 -146 25 -15 23 -15 27 0 50 16 25 19 25 146
25 122 0 130 -1 144 -22z m420 6 c19 -18 21 -55 4 -72 -8 -8 -54 -12 -143 -12
-138 0 -155 5 -155 46 0 46 22 54 155 54 99 0 127 -3 139 -16z m435 -16 c14
-24 14 -28 -3 -47 -17 -19 -30 -21 -144 -21 -103 0 -129 3 -144 17 -22 20 -23
32 -2 61 15 22 20 22 147 20 131 -3 131 -3 146 -30z m415 16 c19 -18 21 -55 4
-72 -8 -8 -54 -12 -143 -12 -138 0 -155 5 -155 46 0 46 22 54 155 54 99 0 127
-3 139 -16z m432 -9 c15 -23 15 -27 0 -50 -16 -25 -19 -25 -146 -25 -104 0
-132 3 -144 16 -20 19 -20 34 0 62 14 21 22 22 144 22 127 0 130 0 146 -25z
m-1697 -327 c14 -24 14 -28 -3 -47 -17 -19 -30 -21 -147 -21 -126 0 -129 0
-145 25 -15 23 -15 27 0 50 17 25 17 26 149 23 131 -3 131 -3 146 -30z m412
22 c22 -12 26 -59 7 -78 -8 -8 -54 -12 -143 -12 -138 0 -155 5 -155 46 0 46
22 54 151 54 66 0 129 -5 140 -10z m435 -15 c15 -23 15 -27 0 -50 -16 -25 -19
-25 -146 -25 -127 0 -130 0 -146 25 -15 23 -15 27 0 50 16 25 19 25 146 25
127 0 130 0 146 -25z m418 9 c19 -18 21 -55 4 -72 -8 -8 -54 -12 -143 -12 -89
0 -135 4 -143 12 -18 18 -15 65 6 77 9 6 72 11 139 11 97 0 125 -3 137 -16z
m432 -9 c15 -23 15 -27 0 -50 -16 -24 -19 -25 -143 -25 -104 0 -130 3 -145 17
-22 20 -23 41 -1 65 14 16 33 18 144 18 126 0 129 0 145 -25z m-1700 -316 c17
-19 17 -23 3 -47 -15 -27 -15 -27 -146 -30 -132 -3 -132 -2 -149 23 -15 23
-15 27 0 50 16 25 19 25 145 25 117 0 130 -2 147 -21z m422 9 c19 -19 15 -66
-7 -78 -11 -5 -74 -10 -140 -10 -129 0 -151 8 -151 54 0 41 17 46 155 46 89 0
135 -4 143 -12z m428 -13 c15 -23 15 -27 0 -50 -16 -25 -19 -25 -146 -25 -127
0 -130 0 -146 25 -15 23 -15 27 0 50 16 25 19 25 146 25 127 0 130 0 146 -25z
m422 13 c17 -17 15 -54 -4 -72 -12 -13 -40 -16 -135 -16 -134 0 -159 7 -159
48 0 48 13 52 155 52 89 0 135 -4 143 -12z m428 -13 c15 -23 15 -27 0 -50 -16
-24 -19 -25 -143 -25 -104 0 -130 3 -145 17 -22 20 -23 41 -1 65 14 16 33 18
144 18 126 0 129 0 145 -25z"/>
</g>
</svg>
